<svg xmlns="http://www.w3.org/2000/svg" viewBox="0 0 39 39"><defs><style>.cls-1{fill:#2196f3;}.cls-2{fill:#fafafa;}</style></defs><title>Recurso 3</title><g id="Capa_2" data-name="Capa 2"><g id="Capa_1-2" data-name="Capa 1"><path class="cls-1" d="M19.5,0A19.13,19.13,0,0,0,0,18.69,18.34,18.34,0,0,0,6.5,32.6v5.59a.81.81,0,0,0,.81.81.82.82,0,0,0,.43-.12l4.53-2.83a20.31,20.31,0,0,0,7.23,1.33A19.13,19.13,0,0,0,39,18.69,19.13,19.13,0,0,0,19.5,0Z"/><path class="cls-2" d="M32.34,13.33a.81.81,0,0,0-1-.23l-8.45,4.61L17.59,13.2a.8.8,0,0,0-1.1,0L6.74,23a.81.81,0,0,0,0,1.15.82.82,0,0,0,1,.14l8.45-4.61,5.26,4.51a.82.82,0,0,0,1.11,0l9.75-9.75A.82.82,0,0,0,32.34,13.33Z"/></g></g></svg>