<svg xmlns="http://www.w3.org/2000/svg" viewBox="0 0 539 55"><defs><style>.cls-1{fill:#1200ff;}.cls-2{fill:none;}</style></defs><g id="Capa_2" data-name="Capa 2"><g id="Capa_1-2" data-name="Capa 1"><path class="cls-1" d="M161.4,15.2,154.7,14a1.74,1.74,0,0,0-1.77.68l-3.1,5.47a1,1,0,0,0,.45,1.37L154.19,24a21.92,21.92,0,0,1-11.43,8.65l-3.19-3a1.9,1.9,0,0,0-1.81-.33l-7.22,2.34a1.14,1.14,0,0,0-.9,1.35l1.55,5.08a1.52,1.52,0,0,0,1.51.9c16.5,0,29.9-10.13,29.9-22.65A1.28,1.28,0,0,0,161.4,15.2Z"/><path d="M187.43,35.22V33l2-.39V19.34H186l-.2,2.24H183V16.43h16.77v5.15h-2.87l-.2-2.24h-3.45V32.58l2,.39v2.25Z"/><path d="M206.79,35.49a6.74,6.74,0,0,1-3.5-.88A6.1,6.1,0,0,1,201,32.18a7.51,7.51,0,0,1-.82-3.54v-.51a8.34,8.34,0,0,1,.78-3.69,6.14,6.14,0,0,1,2.19-2.53,5.9,5.9,0,0,1,3.33-.91,6.25,6.25,0,0,1,3.19.75,4.84,4.84,0,0,1,2,2.16,7.78,7.78,0,0,1,.67,3.4v2.05h-8.21l0,.08a4,4,0,0,0,.46,1.63,2.77,2.77,0,0,0,1.07,1.13,3.34,3.34,0,0,0,1.7.4,6.6,6.6,0,0,0,1.92-.26,7.56,7.56,0,0,0,1.75-.78l1,2.32A7.17,7.17,0,0,1,209.79,35,9.19,9.19,0,0,1,206.79,35.49Zm-2.7-8.62h4.66v-.33a4.28,4.28,0,0,0-.23-1.47,1.9,1.9,0,0,0-.72-.94,2.2,2.2,0,0,0-1.28-.34,2.06,2.06,0,0,0-1.27.39,2.68,2.68,0,0,0-.8,1.08,5.5,5.5,0,0,0-.4,1.55Z"/><path d="M213.81,35.22V33l1.82-.39V17.75l-2-.39V15.09h5.79V32.58l1.82.39v2.25Z"/><path d="M222.8,24.58V21.27h3.76v3.31Zm0,10.64v-3.3h3.76v3.3Z"/><path d="M241.61,35.49A5.92,5.92,0,0,1,237,33.57a8.26,8.26,0,0,1-1.72-5.66V23.76a8.34,8.34,0,0,1,1.71-5.66,6.52,6.52,0,0,1,9.28,0,8.29,8.29,0,0,1,1.72,5.66v4.15a8.31,8.31,0,0,1-1.71,5.66A5.88,5.88,0,0,1,241.61,35.49Zm0-2.89a2.13,2.13,0,0,0,1.92-1,6.33,6.33,0,0,0,.66-3.3V23.38a6.26,6.26,0,0,0-.67-3.28,2.18,2.18,0,0,0-1.94-1,2.16,2.16,0,0,0-1.94,1,6.38,6.38,0,0,0-.65,3.28v4.89a6.33,6.33,0,0,0,.66,3.3A2.18,2.18,0,0,0,241.61,32.6Z"/><path d="M249.92,35.22V33l3.17-.39V19.85h-3.21V17.7l7-1.27V32.58L260,33v2.25Z"/><path d="M261.6,35.22V33l3.17-.39V19.85h-3.21V17.7l7-1.27V32.58l3.17.39v2.25Z"/><path d="M274.13,28.64v-2.9h7.28v2.9Z"/><path d="M290,35.49a7.71,7.71,0,0,1-3.15-.63A5.46,5.46,0,0,1,284.62,33a4.57,4.57,0,0,1-.8-2.84l0-.06,3.62-.18a2.6,2.6,0,0,0,.71,1.95,2.51,2.51,0,0,0,1.86.7,2.17,2.17,0,0,0,1.94-.94,4.23,4.23,0,0,0,.64-2.44,4.57,4.57,0,0,0-.67-2.6,2.26,2.26,0,0,0-2-1,2.83,2.83,0,0,0-1.65.4,2.12,2.12,0,0,0-.82,1.08l-3.33-.22,1.09-10.47H296v4.29h-2.32l-.34-1.27h-5.06l-.53,4.34a4.4,4.4,0,0,1,.8-.46,5.63,5.63,0,0,1,1-.32,5,5,0,0,1,1.11-.12,5.76,5.76,0,0,1,3.08.72,4.83,4.83,0,0,1,1.94,2.17,8,8,0,0,1,.66,3.42,7,7,0,0,1-.73,3.23,5.39,5.39,0,0,1-2.14,2.25A6.87,6.87,0,0,1,290,35.49Z"/><path d="M304.2,35.49a8.22,8.22,0,0,1-3.27-.63A5.35,5.35,0,0,1,298.6,33a4.76,4.76,0,0,1-.82-2.92l0-.08h3.65a2.65,2.65,0,0,0,.33,1.33,2.47,2.47,0,0,0,.95.92,3.06,3.06,0,0,0,1.46.33,2.81,2.81,0,0,0,2.05-.73,2.68,2.68,0,0,0,.76-2,2.73,2.73,0,0,0-.75-2.05,3.11,3.11,0,0,0-2.26-.74h-2V24.23h2.12a3.06,3.06,0,0,0,1.48-.32,2,2,0,0,0,.87-.89,3.1,3.1,0,0,0,.28-1.37,2.69,2.69,0,0,0-.64-1.89,2.45,2.45,0,0,0-1.87-.69,2.78,2.78,0,0,0-1.31.29,2.05,2.05,0,0,0-.88.82,2.34,2.34,0,0,0-.32,1.22H298l0-.08a4.51,4.51,0,0,1,.74-2.66,5.16,5.16,0,0,1,2.19-1.83,7.4,7.4,0,0,1,3.23-.67,7.13,7.13,0,0,1,4.58,1.39,4.76,4.76,0,0,1,1.73,3.93,4,4,0,0,1-.73,2.37,5.17,5.17,0,0,1-2.17,1.73A4.79,4.79,0,0,1,310,27.29a4.5,4.5,0,0,1,.82,2.67,5.12,5.12,0,0,1-.85,2.95,5.43,5.43,0,0,1-2.35,1.91A8.09,8.09,0,0,1,304.2,35.49Z"/><path d="M319.28,35.49a6.63,6.63,0,0,1-3.49-.91A6.2,6.2,0,0,1,313.42,32a9.08,9.08,0,0,1-.85-4.09v-3.3a9.86,9.86,0,0,1,1-4.54,6.9,6.9,0,0,1,2.67-2.88,7.63,7.63,0,0,1,3.91-1,9.2,9.2,0,0,1,1.95.2,10.51,10.51,0,0,1,1.8.59l-.66,2.75a12.67,12.67,0,0,0-1.44-.41,6.64,6.64,0,0,0-1.55-.17,3.38,3.38,0,0,0-2.82,1.22,5.81,5.81,0,0,0-1,3.62l0,.06a4.29,4.29,0,0,1,1.6-1,6,6,0,0,1,2.15-.37,5.07,5.07,0,0,1,2.9.81A5.2,5.2,0,0,1,325,25.67a7.93,7.93,0,0,1,.65,3.28,6.92,6.92,0,0,1-.81,3.38,6,6,0,0,1-2.23,2.32A6.38,6.38,0,0,1,319.28,35.49Zm-.08-2.89a2.12,2.12,0,0,0,1.41-.49,3.11,3.11,0,0,0,.92-1.33,5.37,5.37,0,0,0,.32-1.88,3.94,3.94,0,0,0-.74-2.47,2.51,2.51,0,0,0-2.1-1,4,4,0,0,0-1.1.15,3.48,3.48,0,0,0-.91.43,2.67,2.67,0,0,0-.67.67V28a6.11,6.11,0,0,0,.8,3.43A2.4,2.4,0,0,0,319.2,32.6Z"/><path d="M333.44,35.49a8.36,8.36,0,0,1-3.36-.62A5.11,5.11,0,0,1,327.83,33a5.19,5.19,0,0,1-.81-2.95,4.37,4.37,0,0,1,.87-2.69,5.55,5.55,0,0,1,2.35-1.8,4.92,4.92,0,0,1-2.05-1.69,4.37,4.37,0,0,1-.74-2.49,5.17,5.17,0,0,1,.75-2.85,4.83,4.83,0,0,1,2.09-1.79,8.21,8.21,0,0,1,6.26,0,4.86,4.86,0,0,1,2.1,1.79,5.17,5.17,0,0,1,.75,2.85,4.3,4.3,0,0,1-.75,2.49,5,5,0,0,1-2,1.69A5.47,5.47,0,0,1,339,27.4a4.42,4.42,0,0,1,.87,2.69A5.19,5.19,0,0,1,339,33a5.08,5.08,0,0,1-2.24,1.83A8.23,8.23,0,0,1,333.44,35.49Zm0-2.89a2.82,2.82,0,0,0,1.38-.33,2.43,2.43,0,0,0,.92-1,3.14,3.14,0,0,0,.33-1.48,3,3,0,0,0-.34-1.47,2.51,2.51,0,0,0-.94-1,2.67,2.67,0,0,0-1.38-.35,2.71,2.71,0,0,0-1.37.35,2.46,2.46,0,0,0-.92,1,3.12,3.12,0,0,0-.33,1.47,2.75,2.75,0,0,0,.73,2A2.53,2.53,0,0,0,333.44,32.6Zm0-8.46a2.16,2.16,0,0,0,1.17-.32,2.08,2.08,0,0,0,.76-.89,3.28,3.28,0,0,0,.26-1.35,3,3,0,0,0-.27-1.32,2,2,0,0,0-1.95-1.19,2,2,0,0,0-1.6.67,2.74,2.74,0,0,0-.58,1.84,2.79,2.79,0,0,0,.58,1.87A2,2,0,0,0,333.44,24.14Z"/><path d="M342.24,28.64v-2.9h7.28v2.9Z"/><path d="M352.06,35.22V32.76l6.09-6.54a19.6,19.6,0,0,0,1.46-1.82,6.36,6.36,0,0,0,.75-1.42,3.56,3.56,0,0,0,.23-1.27,2.83,2.83,0,0,0-.63-1.86,2.25,2.25,0,0,0-1.83-.76,2.37,2.37,0,0,0-2,.85,3.63,3.63,0,0,0-.67,2.33h-3.67l0-.08a5.84,5.84,0,0,1,.73-3.07A5.63,5.63,0,0,1,354.74,17a7,7,0,0,1,3.42-.8,7.44,7.44,0,0,1,3.33.69,5.12,5.12,0,0,1,2.13,1.93,5.44,5.44,0,0,1,.75,2.87,5.5,5.5,0,0,1-.4,2.11,8.88,8.88,0,0,1-1.25,2.08q-.86,1.1-2.19,2.52l-3.66,3.92,0,.07h4.86l.2-1.8h2.92v4.67Z"/><path d="M366.72,35.22V32.76l6.09-6.54a19.6,19.6,0,0,0,1.46-1.82A6.9,6.9,0,0,0,375,23a3.77,3.77,0,0,0,.22-1.27,2.83,2.83,0,0,0-.63-1.86,2.25,2.25,0,0,0-1.83-.76,2.37,2.37,0,0,0-2,.85,3.63,3.63,0,0,0-.67,2.33h-3.66l0-.08a5.84,5.84,0,0,1,.73-3.07A5.63,5.63,0,0,1,369.4,17a7,7,0,0,1,3.42-.8,7.41,7.41,0,0,1,3.33.69,5.12,5.12,0,0,1,2.13,1.93,5.44,5.44,0,0,1,.75,2.87,5.5,5.5,0,0,1-.4,2.11,8.55,8.55,0,0,1-1.25,2.08q-.86,1.1-2.19,2.52l-3.66,3.92,0,.07h4.87l.19-1.8h2.92v4.67Z"/><path d="M381.38,35.22V32.76l6.09-6.54a19.6,19.6,0,0,0,1.46-1.82,6.9,6.9,0,0,0,.76-1.42,3.77,3.77,0,0,0,.22-1.27,2.88,2.88,0,0,0-.62-1.86,2.28,2.28,0,0,0-1.84-.76,2.37,2.37,0,0,0-2,.85,3.63,3.63,0,0,0-.67,2.33h-3.66l0-.08a5.84,5.84,0,0,1,.73-3.07A5.63,5.63,0,0,1,384.06,17a7,7,0,0,1,3.42-.8,7.41,7.41,0,0,1,3.33.69,5.12,5.12,0,0,1,2.13,1.93,5.44,5.44,0,0,1,.75,2.87,5.5,5.5,0,0,1-.4,2.11A8.55,8.55,0,0,1,392,25.84q-.85,1.1-2.19,2.52l-3.66,3.92,0,.07h4.87l.19-1.8h2.92v4.67Z"/><path d="M402.2,35.49a8.22,8.22,0,0,1-3.27-.63A5.35,5.35,0,0,1,396.6,33a4.76,4.76,0,0,1-.82-2.92l0-.08h3.65a2.56,2.56,0,0,0,.34,1.33,2.4,2.4,0,0,0,.95.92,3,3,0,0,0,1.45.33,2.84,2.84,0,0,0,2.06-.73,2.72,2.72,0,0,0,.75-2,2.73,2.73,0,0,0-.75-2.05,3.11,3.11,0,0,0-2.26-.74h-2V24.23h2.12a3.06,3.06,0,0,0,1.48-.32,2,2,0,0,0,.87-.89,3.1,3.1,0,0,0,.28-1.37,2.69,2.69,0,0,0-.64-1.89,2.45,2.45,0,0,0-1.87-.69,2.78,2.78,0,0,0-1.31.29,2.05,2.05,0,0,0-.88.82,2.34,2.34,0,0,0-.32,1.22H396l0-.08a4.44,4.44,0,0,1,.73-2.66,5.22,5.22,0,0,1,2.19-1.83,7.4,7.4,0,0,1,3.23-.67,7.13,7.13,0,0,1,4.58,1.39,4.73,4.73,0,0,1,1.73,3.93,4,4,0,0,1-.73,2.37,5.11,5.11,0,0,1-2.17,1.73A4.79,4.79,0,0,1,408,27.29a4.43,4.43,0,0,1,.82,2.67,5.12,5.12,0,0,1-.85,2.95,5.43,5.43,0,0,1-2.35,1.91A8.09,8.09,0,0,1,402.2,35.49Z"/><rect class="cls-2" width="539" height="55"/></g></g></svg>