<svg xmlns="http://www.w3.org/2000/svg" viewBox="0 0 539 55"><defs><style>.cls-1{fill:none;}</style></defs><g id="Capa_2" data-name="Capa 2"><g id="Capa_1-2" data-name="Capa 1"><path d="M140.71,35.22V33l1.82-.39V23.92l-2-.39V21.26h5.78V32.58l1.81.39v2.25Zm1.69-16.91V15.09h3.9v3.22Z"/><path d="M149.22,35.22V33l1.8-.39V23.92l-2-.39V21.26h5.52l.16,2a5.07,5.07,0,0,1,1.73-1.66,4.53,4.53,0,0,1,2.34-.6A4.13,4.13,0,0,1,162,22.33a6.22,6.22,0,0,1,1.17,4.17v6.08L165,33v2.25h-7.2V33l1.61-.39V26.51a2.87,2.87,0,0,0-.55-2,2.17,2.17,0,0,0-1.65-.59,2.68,2.68,0,0,0-2.42,1.32v7.33l1.53.39v2.25Z"/><path d="M166.43,35.22V33l1.82-.39V23.91h-2.07V21.26h2.07V19.71a4.74,4.74,0,0,1,1.35-3.62,5.29,5.29,0,0,1,3.78-1.27,8.12,8.12,0,0,1,1.27.1,10.31,10.31,0,0,1,1.15.22l-.32,2.8a4.3,4.3,0,0,0-.71-.13,7.34,7.34,0,0,0-.81,0,1.9,1.9,0,0,0-1.46.51,2,2,0,0,0-.48,1.44v1.55h3.16v2.65H172v8.67l2.47.39v2.25Z"/><path d="M183.2,35.49a6.71,6.71,0,0,1-3.55-.9,5.88,5.88,0,0,1-2.27-2.51,8.22,8.22,0,0,1-.79-3.7v-.27a8.19,8.19,0,0,1,.79-3.68,6,6,0,0,1,2.26-2.52,7.34,7.34,0,0,1,7.08,0A6.1,6.1,0,0,1,189,24.42a8.34,8.34,0,0,1,.79,3.69v.27a8.36,8.36,0,0,1-.79,3.7,6,6,0,0,1-2.26,2.51A6.6,6.6,0,0,1,183.2,35.49Zm0-2.89a2.34,2.34,0,0,0,1.6-.53,3,3,0,0,0,.91-1.47,7.41,7.41,0,0,0,.3-2.22v-.27a7.23,7.23,0,0,0-.3-2.18,3,3,0,0,0-.92-1.49,2.71,2.71,0,0,0-3.22,0,3,3,0,0,0-.92,1.49,7.57,7.57,0,0,0-.29,2.18v.27a7.71,7.71,0,0,0,.29,2.22,3,3,0,0,0,.92,1.48A2.47,2.47,0,0,0,183.2,32.6Z"/><path d="M201.92,41.07a10.91,10.91,0,0,1-5.79-1.45,9,9,0,0,1-3.58-4.14,14.27,14.27,0,0,1-1.05-6.42,15,15,0,0,1,1.58-6.41A10.53,10.53,0,0,1,197,18.42a11.16,11.16,0,0,1,5.84-1.5,10.59,10.59,0,0,1,5.62,1.42,8.71,8.71,0,0,1,3.47,4,13.67,13.67,0,0,1,1,6.15A9.69,9.69,0,0,1,212.2,32a6,6,0,0,1-2,2.55,5.36,5.36,0,0,1-3.22.94,3.22,3.22,0,0,1-2-.56,3,3,0,0,1-1.07-1.59,3.66,3.66,0,0,1-3.4,2.12,3.12,3.12,0,0,1-2.79-1.55,6.51,6.51,0,0,1-.72-4.16A12.21,12.21,0,0,1,198,26a6.07,6.07,0,0,1,1.94-2.49,4.9,4.9,0,0,1,3-.89A6.41,6.41,0,0,1,205,23,9.64,9.64,0,0,1,207,24l0,.05-.66,7.39a4.88,4.88,0,0,0,.06,1.28,1.07,1.07,0,0,0,.38.66,1.09,1.09,0,0,0,.66.19,2.58,2.58,0,0,0,2.22-1.42,7.64,7.64,0,0,0,1-3.66q.21-4.5-1.77-7c-1.33-1.69-3.35-2.53-6.08-2.53a8.18,8.18,0,0,0-4.53,1.24,8.41,8.41,0,0,0-3,3.51A13.52,13.52,0,0,0,194,29.06a12,12,0,0,0,.75,5.26,7.21,7.21,0,0,0,2.73,3.41,7.91,7.91,0,0,0,4.45,1.2,10.62,10.62,0,0,0,2.27-.26,9.69,9.69,0,0,0,2-.65l.49,1.9a7.37,7.37,0,0,1-2.2.85A12,12,0,0,1,201.92,41.07Zm-.45-7.89a2.32,2.32,0,0,0,1.22-.34,3,3,0,0,0,1-1.24c0-.05,0-.12,0-.2a2.5,2.5,0,0,1,0-.32l.53-6a5.08,5.08,0,0,0-.59-.18,3.24,3.24,0,0,0-.64-.06,2.38,2.38,0,0,0-2.16,1.24,9.08,9.08,0,0,0-1,3.77,5.12,5.12,0,0,0,.25,2.48A1.31,1.31,0,0,0,201.47,33.18Z"/><path d="M214.61,35.22V33l1.82-.39V23.92l-2-.39V21.26h5.51l.15,1.85a4.72,4.72,0,0,1,1.68-1.56,4.94,4.94,0,0,1,2.35-.55,4.26,4.26,0,0,1,2.3.6,3.56,3.56,0,0,1,1.44,1.79,4.9,4.9,0,0,1,1.68-1.76A4.55,4.55,0,0,1,232,21a4,4,0,0,1,3.26,1.41,6.49,6.49,0,0,1,1.2,4.28v5.89l1.81.39v2.25H231V33l1.63-.39v-5.9a3.4,3.4,0,0,0-.51-2.15,1.83,1.83,0,0,0-1.48-.6,2.25,2.25,0,0,0-1.48.5,2.75,2.75,0,0,0-.88,1.31v6.84l1.52.39v2.25H223V33l1.52-.39v-5.9a3.39,3.39,0,0,0-.51-2.13,1.84,1.84,0,0,0-1.5-.62,2.87,2.87,0,0,0-1.38.32,2.67,2.67,0,0,0-1,.93v7.4l1.63.39v2.25Z"/><path d="M244.16,35.49a4.72,4.72,0,0,1-3.3-1.11,3.91,3.91,0,0,1-1.23-3,3.82,3.82,0,0,1,.72-2.31,4.74,4.74,0,0,1,2.11-1.56,9.24,9.24,0,0,1,3.46-.57h1.84v-1a2.28,2.28,0,0,0-.59-1.64,2.31,2.31,0,0,0-1.76-.62,3.61,3.61,0,0,0-1.08.15,3.4,3.4,0,0,0-.88.42l-.3,1.84h-2.71l-.05-3.62a11.51,11.51,0,0,1,2.38-1,9.72,9.72,0,0,1,2.85-.39,6.77,6.77,0,0,1,4.32,1.27,4.39,4.39,0,0,1,1.59,3.64v5.75c0,.19,0,.38,0,.56a4.56,4.56,0,0,0,0,.54L253,33v2.25h-4.67c-.1-.24-.19-.5-.29-.77a5,5,0,0,1-.2-.83A5.23,5.23,0,0,1,246.3,35,4.32,4.32,0,0,1,244.16,35.49Zm1-2.78a3.24,3.24,0,0,0,1.49-.36,2.74,2.74,0,0,0,1.1-.93V29.21H245.9a2.72,2.72,0,0,0-1.87.57,1.75,1.75,0,0,0-.64,1.37,1.42,1.42,0,0,0,.47,1.15A1.94,1.94,0,0,0,245.17,32.71Z"/><path d="M254.24,35.22V33l1.81-.39V23.92l-2-.39V21.26h5.51l.16,2a5.07,5.07,0,0,1,1.73-1.66,4.53,4.53,0,0,1,2.34-.6A4.12,4.12,0,0,1,267,22.33a6.22,6.22,0,0,1,1.18,4.17v6.08L270,33v2.25h-7.2V33l1.61-.39V26.51a2.87,2.87,0,0,0-.55-2,2.17,2.17,0,0,0-1.65-.59,3,3,0,0,0-1.42.34,3,3,0,0,0-1,1v7.33l1.53.39v2.25Z"/><path d="M276.59,35.49a4.39,4.39,0,0,1-3.46-1.4,6.35,6.35,0,0,1-1.26-4.35V23.92l-1.54-.39V21.26h5.31v8.5a3.44,3.44,0,0,0,.52,2.15,1.89,1.89,0,0,0,1.58.66,3.19,3.19,0,0,0,1.48-.33,2.74,2.74,0,0,0,1.06-.94V23.92l-1.66-.39V21.26h5.43V32.58l1.68.39v2.25h-5l-.26-1.76A4.67,4.67,0,0,1,278.84,35,4.75,4.75,0,0,1,276.59,35.49Z"/><path d="M292.61,35.49a4,4,0,0,1-3-1.07A4.64,4.64,0,0,1,288.55,31V23.91h-1.92V21.26h1.92V17.84h3.76v3.42h2.57v2.65h-2.57V31a1.61,1.61,0,0,0,.34,1.16,1.27,1.27,0,0,0,.94.35,5.29,5.29,0,0,0,.67-.05,6.22,6.22,0,0,0,.62-.1l.32,2.73a10.71,10.71,0,0,1-1.26.27A7.54,7.54,0,0,1,292.61,35.49Z"/><path d="M303,35.49a6.77,6.77,0,0,1-3.5-.88,6,6,0,0,1-2.31-2.43,7.4,7.4,0,0,1-.82-3.54v-.51a8.34,8.34,0,0,1,.77-3.69,6.21,6.21,0,0,1,2.19-2.53,5.9,5.9,0,0,1,3.33-.91,6.25,6.25,0,0,1,3.19.75,4.79,4.79,0,0,1,2,2.16,7.78,7.78,0,0,1,.67,3.4v2.05h-8.2l0,.08a4.19,4.19,0,0,0,.46,1.63,2.73,2.73,0,0,0,1.08,1.13,3.28,3.28,0,0,0,1.69.4,6.67,6.67,0,0,0,1.93-.26,8,8,0,0,0,1.75-.78l1,2.32A7.17,7.17,0,0,1,306,35,9.19,9.19,0,0,1,303,35.49Zm-2.7-8.62h4.66v-.33a4.29,4.29,0,0,0-.22-1.47,2,2,0,0,0-.73-.94,2.2,2.2,0,0,0-1.28-.34,2.06,2.06,0,0,0-1.27.39,2.68,2.68,0,0,0-.8,1.08,5.5,5.5,0,0,0-.4,1.55Z"/><path d="M310.11,40.59V38.32l1.82-.39v-14l-2-.39V21.26h5.47l.18,1.63a4.53,4.53,0,0,1,1.5-1.4,4.3,4.3,0,0,1,2.09-.49,4.62,4.62,0,0,1,2.89.92,5.79,5.79,0,0,1,1.84,2.58,10.59,10.59,0,0,1,.64,3.86v.27a9.31,9.31,0,0,1-.64,3.61,5.46,5.46,0,0,1-1.84,2.4,4.92,4.92,0,0,1-2.91.85,4.58,4.58,0,0,1-2-.4,3.94,3.94,0,0,1-1.47-1.2v4l1.82.39v2.27Zm7.89-8a2.25,2.25,0,0,0,2.1-1.07,5.49,5.49,0,0,0,.65-2.9v-.27a8.4,8.4,0,0,0-.29-2.32,3.47,3.47,0,0,0-.91-1.55,2.27,2.27,0,0,0-1.57-.56,2.62,2.62,0,0,0-1.36.35,2.43,2.43,0,0,0-.94,1v6.12a2.2,2.2,0,0,0,.94.9A2.87,2.87,0,0,0,318,32.6Z"/><path d="M326.48,35.22V33l1.81-.39V23.92l-2-.39V21.26h5.51l.14,1.73,0,.31a4.34,4.34,0,0,1,1.28-1.72,2.92,2.92,0,0,1,1.81-.58,5,5,0,0,1,.74.06,5.48,5.48,0,0,1,.71.15l-.4,3.47-1.87-.1a2.17,2.17,0,0,0-1.3.27,2.87,2.87,0,0,0-.88.89v6.84l1.8.39v2.25Z"/><path d="M344.06,35.49a6.77,6.77,0,0,1-3.5-.88,6,6,0,0,1-2.31-2.43,7.4,7.4,0,0,1-.82-3.54v-.51a8.34,8.34,0,0,1,.77-3.69,6.21,6.21,0,0,1,2.19-2.53,5.9,5.9,0,0,1,3.33-.91,6.25,6.25,0,0,1,3.19.75,4.79,4.79,0,0,1,2,2.16,7.78,7.78,0,0,1,.67,3.4v2.05h-8.2l0,.08a4,4,0,0,0,.46,1.63,2.73,2.73,0,0,0,1.08,1.13,3.28,3.28,0,0,0,1.69.4,6.72,6.72,0,0,0,1.93-.26,8,8,0,0,0,1.75-.78l1,2.32A7.17,7.17,0,0,1,347.06,35,9.19,9.19,0,0,1,344.06,35.49Zm-2.7-8.62H346v-.33a4.29,4.29,0,0,0-.22-1.47,2,2,0,0,0-.73-.94,2.2,2.2,0,0,0-1.28-.34,2.06,2.06,0,0,0-1.27.39,2.68,2.68,0,0,0-.8,1.08,5.5,5.5,0,0,0-.4,1.55Z"/><path d="M357.27,35.49a12.91,12.91,0,0,1-5.49-1.14l0-4h2.62l.5,2a4.54,4.54,0,0,0,1,.35,5.38,5.38,0,0,0,1.2.13,2.89,2.89,0,0,0,1.78-.42,1.26,1.26,0,0,0,.51-1,1.28,1.28,0,0,0-.55-1,5.37,5.37,0,0,0-2.18-.78,7.71,7.71,0,0,1-3.65-1.6,3.61,3.61,0,0,1-1.18-2.78,4,4,0,0,1,.59-2.12,4.19,4.19,0,0,1,1.79-1.53,7.13,7.13,0,0,1,3.09-.58,13,13,0,0,1,2.89.3,8.52,8.52,0,0,1,2.2.8l0,3.81h-2.61l-.4-1.83a2.38,2.38,0,0,0-.82-.38,3.87,3.87,0,0,0-1.07-.13,2.46,2.46,0,0,0-1.52.4,1.24,1.24,0,0,0-.53,1,1.33,1.33,0,0,0,.19.67,1.72,1.72,0,0,0,.74.58,8.36,8.36,0,0,0,1.62.52,9.21,9.21,0,0,1,3.78,1.58,3.4,3.4,0,0,1,1.18,2.77,3.93,3.93,0,0,1-1.41,3.14A6.39,6.39,0,0,1,357.27,35.49Z"/><path d="M370.11,35.49a4,4,0,0,1-3-1.07A4.68,4.68,0,0,1,366.06,31V23.91h-1.92V21.26h1.92V17.84h3.76v3.42h2.57v2.65h-2.57V31a1.61,1.61,0,0,0,.34,1.16,1.26,1.26,0,0,0,.93.35,5.31,5.31,0,0,0,.68-.05c.24,0,.44-.06.62-.1l.32,2.73a10.71,10.71,0,0,1-1.26.27A7.65,7.65,0,0,1,370.11,35.49Z"/><path d="M378.79,35.49a4.75,4.75,0,0,1-3.31-1.11,3.94,3.94,0,0,1-1.22-3A3.88,3.88,0,0,1,375,29a4.77,4.77,0,0,1,2.12-1.56,9.15,9.15,0,0,1,3.45-.57h1.85v-1A2.1,2.1,0,0,0,380,23.61a3.64,3.64,0,0,0-1.09.15,3.33,3.33,0,0,0-.87.42l-.3,1.84h-2.71L375,22.4a11.42,11.42,0,0,1,2.37-1,9.84,9.84,0,0,1,2.86-.39,6.77,6.77,0,0,1,4.32,1.27,4.39,4.39,0,0,1,1.59,3.64v6.31a4.51,4.51,0,0,0,0,.54l1.46.21v2.25H383c-.09-.24-.19-.5-.28-.77a6.31,6.31,0,0,1-.21-.83A5,5,0,0,1,380.92,35,4.28,4.28,0,0,1,378.79,35.49Zm1-2.78a3.25,3.25,0,0,0,1.5-.36,2.81,2.81,0,0,0,1.1-.93V29.21h-1.86a2.74,2.74,0,0,0-1.88.57,1.78,1.78,0,0,0-.64,1.37,1.46,1.46,0,0,0,.47,1.15A2,2,0,0,0,379.79,32.71Z"/><path d="M389.86,35.22v-3.3h3.75v3.3Z"/><path d="M402.31,35.49a6.47,6.47,0,0,1-3.47-.9,6,6,0,0,1-2.26-2.5,8.15,8.15,0,0,1-.78-3.64v-.39a7.94,7.94,0,0,1,.8-3.65,6.12,6.12,0,0,1,2.25-2.5,6.44,6.44,0,0,1,3.44-.91,8.15,8.15,0,0,1,3.24.59A7.85,7.85,0,0,1,407.75,23l0,4h-2.84l-.5-2.49a2.32,2.32,0,0,0-.79-.5,2.55,2.55,0,0,0-1-.2,2.76,2.76,0,0,0-1.71.52,3,3,0,0,0-1,1.47,7.12,7.12,0,0,0-.34,2.31v.39a6.28,6.28,0,0,0,.38,2.35,3,3,0,0,0,1,1.37,2.39,2.39,0,0,0,1.4.43,2.33,2.33,0,0,0,1.59-.52,2.65,2.65,0,0,0,.82-1.48H408l0,.08a7,7,0,0,1-.87,2.57,4.3,4.3,0,0,1-1.84,1.66A6.71,6.71,0,0,1,402.31,35.49Z"/><path d="M416.37,35.49a6.71,6.71,0,0,1-3.55-.9,5.88,5.88,0,0,1-2.27-2.51,8.22,8.22,0,0,1-.79-3.7v-.27a8.19,8.19,0,0,1,.79-3.68,6,6,0,0,1,2.26-2.52,7.34,7.34,0,0,1,7.08,0,6.1,6.1,0,0,1,2.26,2.51,8.34,8.34,0,0,1,.78,3.69v.27a8.36,8.36,0,0,1-.78,3.7,6,6,0,0,1-2.26,2.51A6.63,6.63,0,0,1,416.37,35.49Zm0-2.89a2.36,2.36,0,0,0,1.6-.53,3.11,3.11,0,0,0,.91-1.47,7.41,7.41,0,0,0,.3-2.22v-.27a7.23,7.23,0,0,0-.3-2.18,3.11,3.11,0,0,0-.92-1.49,2.71,2.71,0,0,0-3.22,0,3,3,0,0,0-.92,1.49,7.24,7.24,0,0,0-.29,2.18v.27a7.38,7.38,0,0,0,.29,2.22,3,3,0,0,0,.92,1.48A2.45,2.45,0,0,0,416.37,32.6Z"/><path d="M424.47,35.22V33l1.82-.39V23.92l-2-.39V21.26h5.51l.15,1.85a4.67,4.67,0,0,1,1.69-1.56A4.87,4.87,0,0,1,434,21a4.26,4.26,0,0,1,2.3.6,3.56,3.56,0,0,1,1.44,1.79,4.9,4.9,0,0,1,1.68-1.76,4.57,4.57,0,0,1,2.42-.63,4,4,0,0,1,3.26,1.41,6.49,6.49,0,0,1,1.2,4.28v5.89l1.82.39v2.25h-7.22V33l1.63-.39v-5.9a3.4,3.4,0,0,0-.51-2.15,1.83,1.83,0,0,0-1.48-.6,2.26,2.26,0,0,0-1.48.5,2.75,2.75,0,0,0-.88,1.31v6.84l1.52.39v2.25h-6.8V33l1.52-.39v-5.9a3.47,3.47,0,0,0-.5-2.13,1.86,1.86,0,0,0-1.51-.62,2.87,2.87,0,0,0-1.38.32,2.64,2.64,0,0,0-.95.93v7.4l1.62.39v2.25Z"/><path d="M120.9,14.9H93.61a3.15,3.15,0,0,0-3.15,3.15V37a3.15,3.15,0,0,0,3.15,3.15H120.9A3.15,3.15,0,0,0,124.05,37V18.05A3.15,3.15,0,0,0,120.9,14.9Zm0,3.15v2.68c-1.47,1.2-3.81,3.06-8.83,7-1.1.86-3.29,3-4.81,2.93s-3.71-2.07-4.82-2.93c-5-3.93-7.36-5.79-8.83-7V18.05ZM93.61,37V24.77c1.5,1.2,3.64,2.88,6.89,5.42,1.43,1.13,3.94,3.62,6.76,3.61s5.28-2.44,6.76-3.61c3.25-2.54,5.38-4.22,6.88-5.42V37Z"/><rect class="cls-1" width="539" height="55"/></g></g></svg>