<svg xmlns="http://www.w3.org/2000/svg" viewBox="0 0 384 341.33"><defs><style>.cls-1{fill:#fff;}</style></defs><title>menu</title><g id="Capa_2" data-name="Capa 2"><g id="Capa_1-2" data-name="Capa 1"><path class="cls-1" d="M362.67,0H21.33A21.37,21.37,0,0,0,0,21.33V64A21.37,21.37,0,0,0,21.33,85.33H362.67A21.37,21.37,0,0,0,384,64V21.33A21.37,21.37,0,0,0,362.67,0Z"/><path class="cls-1" d="M362.67,128H21.33A21.37,21.37,0,0,0,0,149.33V192a21.37,21.37,0,0,0,21.33,21.33H362.67A21.37,21.37,0,0,0,384,192V149.33A21.37,21.37,0,0,0,362.67,128Z"/><path class="cls-1" d="M362.67,256H21.33A21.37,21.37,0,0,0,0,277.33V320a21.37,21.37,0,0,0,21.33,21.33H362.67A21.37,21.37,0,0,0,384,320V277.33A21.37,21.37,0,0,0,362.67,256Z"/></g></g></svg>