<svg xmlns="http://www.w3.org/2000/svg" viewBox="0 0 539 55"><defs><style>.cls-1{fill:none;}.cls-2{fill:#07db20;}</style></defs><g id="Capa_2" data-name="Capa 2"><g id="Capa_1-2" data-name="Capa 1"><rect class="cls-1" width="539" height="55"/><path d="M127,35.22,122.68,18.9l-1.93-.19V16.43h7.57v2.28l-2,.29,2.21,9.14.4,1.68H129l.48-1.68,3.72-11.71h2.77l3.86,12,.45,1.49h.08l.39-1.49L143,19l-2.14-.29V16.43h7.42v2.28l-1.79.19-4.42,16.32h-3.4l-3.57-11-.45-1.55h-.08l-.5,1.6-3.6,10.93Z"/><path d="M149.34,35.22V33l1.82-.39V17.75l-2-.39V15.09h5.77v8a4.79,4.79,0,0,1,1.64-1.5,4.44,4.44,0,0,1,2.21-.54,4.22,4.22,0,0,1,3.33,1.4,6.4,6.4,0,0,1,1.24,4.33v5.85l1.8.39v2.25h-7.2V33l1.63-.39V26.71a3.22,3.22,0,0,0-.57-2.15,2.12,2.12,0,0,0-1.66-.63,3.06,3.06,0,0,0-1.39.32,2.68,2.68,0,0,0-1,.92v7.41l1.63.39v2.25Z"/><path d="M171,35.5a4.75,4.75,0,0,1-3.31-1.12,3.94,3.94,0,0,1-1.22-3A3.88,3.88,0,0,1,167.2,29a4.77,4.77,0,0,1,2.12-1.56,9.15,9.15,0,0,1,3.45-.57h1.85v-1a2.12,2.12,0,0,0-2.35-2.26,3.57,3.57,0,0,0-1.08.15,3.25,3.25,0,0,0-.88.42L170,26H167.3l-.05-3.62a11.42,11.42,0,0,1,2.37-1,9.84,9.84,0,0,1,2.86-.39,6.77,6.77,0,0,1,4.32,1.27,4.39,4.39,0,0,1,1.59,3.64v6.31a4.51,4.51,0,0,0,.05.54l1.46.21v2.25h-4.67c-.1-.24-.19-.5-.29-.77a6.31,6.31,0,0,1-.21-.83A5.17,5.17,0,0,1,173.15,35,4.25,4.25,0,0,1,171,35.5Zm1-2.79a3.25,3.25,0,0,0,1.5-.36,2.81,2.81,0,0,0,1.1-.93V29.21h-1.86a2.74,2.74,0,0,0-1.88.57,1.78,1.78,0,0,0-.64,1.37,1.46,1.46,0,0,0,.47,1.15A2,2,0,0,0,172,32.71Z"/><path d="M186.26,35.5a4,4,0,0,1-3-1.08,4.68,4.68,0,0,1-1-3.39V23.91h-1.93V21.26h1.93V17.84H186v3.42h2.57v2.65H186V31a1.66,1.66,0,0,0,.34,1.16,1.27,1.27,0,0,0,.94.35,5.45,5.45,0,0,0,.68-.05c.23,0,.44-.06.61-.1l.32,2.73a11.89,11.89,0,0,1-1.26.28A8.62,8.62,0,0,1,186.26,35.5Z"/><path d="M196.25,35.5a13.4,13.4,0,0,1-2.91-.3,13.54,13.54,0,0,1-2.59-.85l0-4h2.62l.5,2a4.84,4.84,0,0,0,1,.35,4.71,4.71,0,0,0,1.19.13,2.87,2.87,0,0,0,1.78-.42,1.27,1.27,0,0,0,.52-1,1.31,1.31,0,0,0-.55-1,5.5,5.5,0,0,0-2.19-.78A7.71,7.71,0,0,1,191.9,28a3.64,3.64,0,0,1-1.18-2.78,4,4,0,0,1,.59-2.12,4.16,4.16,0,0,1,1.8-1.53A7.07,7.07,0,0,1,196.2,21a12.86,12.86,0,0,1,2.88.3,8.38,8.38,0,0,1,2.2.8l0,3.82h-2.61l-.4-1.84a2.3,2.3,0,0,0-.82-.38,3.85,3.85,0,0,0-1.06-.13,2.46,2.46,0,0,0-1.52.4,1.21,1.21,0,0,0-.53,1,1.32,1.32,0,0,0,.18.67,1.76,1.76,0,0,0,.75.58,8.22,8.22,0,0,0,1.61.52,9.09,9.09,0,0,1,3.78,1.58,3.41,3.41,0,0,1,1.19,2.77,3.89,3.89,0,0,1-1.42,3.14A6.32,6.32,0,0,1,196.25,35.5Z"/><path d="M208.28,35.5A4.75,4.75,0,0,1,205,34.38a3.91,3.91,0,0,1-1.22-3,3.82,3.82,0,0,1,.71-2.31,4.71,4.71,0,0,1,2.12-1.56A9.15,9.15,0,0,1,210,26.9h1.85v-1a2.12,2.12,0,0,0-2.35-2.26,3.64,3.64,0,0,0-1.09.15,3.19,3.19,0,0,0-.87.42l-.3,1.84h-2.71l-.05-3.62a11.42,11.42,0,0,1,2.37-1,9.72,9.72,0,0,1,2.85-.39,6.78,6.78,0,0,1,4.33,1.27,4.41,4.41,0,0,1,1.58,3.64v5.75c0,.19,0,.38,0,.56a3.1,3.1,0,0,0,0,.54l1.45.21v2.25h-4.67c-.09-.24-.19-.5-.28-.77a4.21,4.21,0,0,1-.21-.83A5.28,5.28,0,0,1,210.41,35,4.3,4.3,0,0,1,208.28,35.5Zm1-2.79a3.25,3.25,0,0,0,1.5-.36,2.81,2.81,0,0,0,1.1-.93V29.21H210a2.74,2.74,0,0,0-1.88.57,1.75,1.75,0,0,0-.64,1.37A1.46,1.46,0,0,0,208,32.3,2,2,0,0,0,209.28,32.71Z"/><path d="M218.41,40.59V38.32l1.82-.39v-14l-2-.39V21.26h5.47l.18,1.63a4.53,4.53,0,0,1,1.5-1.4,4.3,4.3,0,0,1,2.09-.49,4.57,4.57,0,0,1,2.89.93,5.71,5.71,0,0,1,1.84,2.57,10.59,10.59,0,0,1,.64,3.86v.27a9.31,9.31,0,0,1-.64,3.61,5.46,5.46,0,0,1-1.84,2.4,4.93,4.93,0,0,1-2.91.86,4.58,4.58,0,0,1-2-.41,3.94,3.94,0,0,1-1.47-1.2v4l1.82.39v2.27Zm7.89-8a2.25,2.25,0,0,0,2.1-1.07,5.49,5.49,0,0,0,.65-2.9v-.27a8.4,8.4,0,0,0-.29-2.32,3.47,3.47,0,0,0-.91-1.55,2.27,2.27,0,0,0-1.57-.56,2.62,2.62,0,0,0-1.36.35,2.43,2.43,0,0,0-.94,1v6.12a2.2,2.2,0,0,0,.94.9A2.87,2.87,0,0,0,226.3,32.6Z"/><path d="M234.16,40.59V38.32l1.82-.39v-14l-2-.39V21.26h5.47l.18,1.63a4.34,4.34,0,0,1,1.5-1.4,4.28,4.28,0,0,1,2.09-.49,4.57,4.57,0,0,1,2.89.93,5.78,5.78,0,0,1,1.84,2.57,10.8,10.8,0,0,1,.64,3.86v.27a9.5,9.5,0,0,1-.64,3.61,5.48,5.48,0,0,1-1.85,2.4,4.89,4.89,0,0,1-2.91.86,4.58,4.58,0,0,1-2-.41,3.91,3.91,0,0,1-1.46-1.2v4l1.82.39v2.27Zm7.9-8a2.27,2.27,0,0,0,2.1-1.07,5.59,5.59,0,0,0,.65-2.9v-.27a8,8,0,0,0-.3-2.32,3.39,3.39,0,0,0-.91-1.55,2.25,2.25,0,0,0-1.57-.56,2.65,2.65,0,0,0-1.36.35,2.47,2.47,0,0,0-.93,1v6.12a2.24,2.24,0,0,0,.93.9A2.91,2.91,0,0,0,242.06,32.6Z"/><path d="M250.62,24.58V21.27h3.75v3.31Zm0,10.64v-3.3h3.75v3.3Z"/><path d="M267.1,33.34V28h-4.68V24.75h4.68V19.66h3.57v5.09h4.63V28h-4.63v5.34Z"/><path d="M283,35.5a7.7,7.7,0,0,1-3.14-.64A5.46,5.46,0,0,1,277.63,33a4.57,4.57,0,0,1-.8-2.84l0-.06,3.62-.18a2.6,2.6,0,0,0,.71,1.95,2.5,2.5,0,0,0,1.85.7,2.18,2.18,0,0,0,2-.94,4.31,4.31,0,0,0,.64-2.44,4.5,4.5,0,0,0-.68-2.6,2.24,2.24,0,0,0-2-1,2.82,2.82,0,0,0-1.64.4,2.12,2.12,0,0,0-.82,1.08l-3.33-.22,1.08-10.47h10.82v4.29h-2.32l-.34-1.27h-5.06l-.53,4.34a4.67,4.67,0,0,1,.8-.46,5.63,5.63,0,0,1,1-.32,4.91,4.91,0,0,1,1.11-.12,5.76,5.76,0,0,1,3.08.72,4.83,4.83,0,0,1,1.94,2.17,8,8,0,0,1,.66,3.42,7,7,0,0,1-.73,3.23,5.39,5.39,0,0,1-2.14,2.25A6.88,6.88,0,0,1,283,35.5Z"/><path d="M296.4,35.22V33l2-.39V30.73h-7.67l-.18-1.84,7.81-12.46h3.79v11.8h2.13v2.5h-2.13v1.85l2,.39v2.25Zm-2.32-7h4.34V21.45l-.08,0L298,22Z"/><path d="M311.46,35.5a10.27,10.27,0,0,1-2-.21,8.52,8.52,0,0,1-1.91-.58L308,32a9.71,9.71,0,0,0,1.68.46,8.84,8.84,0,0,0,1.68.16,3.19,3.19,0,0,0,2.58-1.12,5.47,5.47,0,0,0,1-3.5l0-.28a4.15,4.15,0,0,1-1.51,1.23,4.49,4.49,0,0,1-1.95.42,5.42,5.42,0,0,1-2.92-.78,5.16,5.16,0,0,1-1.95-2.22,8.06,8.06,0,0,1-.69-3.48,7.09,7.09,0,0,1,.82-3.42,6.34,6.34,0,0,1,2.25-2.4,6,6,0,0,1,3.24-.89,6.39,6.39,0,0,1,3.38.89,6,6,0,0,1,2.27,2.58,9.25,9.25,0,0,1,.82,4.08v4.08a8.93,8.93,0,0,1-.91,4.16,6.42,6.42,0,0,1-2.52,2.64A7.43,7.43,0,0,1,311.46,35.5Zm.73-8.91a3.43,3.43,0,0,0,1.55-.35,3.05,3.05,0,0,0,1.09-.95v-2a5.63,5.63,0,0,0-.72-3.14,2.25,2.25,0,0,0-2-1.06,2,2,0,0,0-1.34.51,3.45,3.45,0,0,0-.9,1.38,5.36,5.36,0,0,0-.33,1.91,6.17,6.17,0,0,0,.29,2,2.65,2.65,0,0,0,.87,1.29A2.3,2.3,0,0,0,312.19,26.59Z"/><path d="M320.72,35.22V32.76l6.09-6.54a21.42,21.42,0,0,0,1.46-1.82A6.36,6.36,0,0,0,329,23a3.79,3.79,0,0,0,.23-1.27,2.83,2.83,0,0,0-.63-1.86,2.27,2.27,0,0,0-1.84-.76,2.34,2.34,0,0,0-2,.85,3.63,3.63,0,0,0-.67,2.33h-3.67l0-.08a5.84,5.84,0,0,1,.72-3.07A5.77,5.77,0,0,1,323.39,17a7,7,0,0,1,3.43-.8,7.36,7.36,0,0,1,3.32.69,5.09,5.09,0,0,1,2.14,1.93,5.44,5.44,0,0,1,.75,2.87,5.5,5.5,0,0,1-.4,2.11,9.24,9.24,0,0,1-1.25,2.08c-.57.73-1.3,1.57-2.2,2.52l-3.65,3.92,0,.07h4.86l.2-1.8h2.91v4.67Z"/><path d="M341.66,35.5a8.31,8.31,0,0,1-3.35-.63A5.08,5.08,0,0,1,336.05,33a5.26,5.26,0,0,1-.8-2.95,4.43,4.43,0,0,1,.86-2.69,5.55,5.55,0,0,1,2.35-1.8,4.92,4.92,0,0,1-2-1.69,4.37,4.37,0,0,1-.74-2.49,5.17,5.17,0,0,1,.75-2.85,4.89,4.89,0,0,1,2.09-1.79,8.24,8.24,0,0,1,6.27,0,4.86,4.86,0,0,1,2.1,1.79,5.25,5.25,0,0,1,.74,2.85,4.37,4.37,0,0,1-.74,2.49,5.08,5.08,0,0,1-2.06,1.69,5.56,5.56,0,0,1,2.37,1.8,4.47,4.47,0,0,1,.86,2.69,5.19,5.19,0,0,1-.81,2.95A5,5,0,0,1,345,34.87,8.19,8.19,0,0,1,341.66,35.5Zm0-2.9a2.76,2.76,0,0,0,1.38-.33,2.33,2.33,0,0,0,.93-1,3.26,3.26,0,0,0,.32-1.48,3,3,0,0,0-.34-1.47,2.55,2.55,0,0,0-.93-1,2.72,2.72,0,0,0-1.38-.35,2.66,2.66,0,0,0-1.37.35,2.29,2.29,0,0,0-.92,1,3.06,3.06,0,0,0-.33,1.46,2.78,2.78,0,0,0,.72,2A2.53,2.53,0,0,0,341.66,32.6Zm0-8.46a2.14,2.14,0,0,0,1.17-.32,2.08,2.08,0,0,0,.76-.89,3.13,3.13,0,0,0,.27-1.35,2.88,2.88,0,0,0-.28-1.32,2.11,2.11,0,0,0-.76-.88,2.16,2.16,0,0,0-1.18-.31,2,2,0,0,0-1.61.67,2.79,2.79,0,0,0-.57,1.84,2.79,2.79,0,0,0,.58,1.87A2,2,0,0,0,341.66,24.14Z"/><path d="M356.4,35.5a6,6,0,0,1-4.66-1.93A8.31,8.31,0,0,1,350,27.91V23.76a8.3,8.3,0,0,1,1.71-5.65,6.5,6.5,0,0,1,9.28,0,8.25,8.25,0,0,1,1.73,5.65v4.15A8.31,8.31,0,0,1,361,33.57,5.9,5.9,0,0,1,356.4,35.5Zm0-2.9a2.13,2.13,0,0,0,1.92-1,6.33,6.33,0,0,0,.66-3.3V23.38a6.16,6.16,0,0,0-.67-3.28,2.17,2.17,0,0,0-1.94-1,2.14,2.14,0,0,0-1.93,1,6.27,6.27,0,0,0-.66,3.28v4.89a6.33,6.33,0,0,0,.66,3.3A2.19,2.19,0,0,0,356.4,32.6Z"/><path d="M370.22,35.22V33l2-.39V30.73h-7.66l-.18-1.84,7.81-12.46H376v11.8h2.13v2.5H376v1.85l2,.39v2.25Zm-2.32-7h4.33V21.45l-.07,0-.31.54Z"/><path d="M386,35.5a8.22,8.22,0,0,1-3.27-.64A5.35,5.35,0,0,1,380.37,33a4.74,4.74,0,0,1-.82-2.92l0-.08h3.65a2.53,2.53,0,0,0,.34,1.33,2.38,2.38,0,0,0,.94.92,3.06,3.06,0,0,0,1.46.33,2.81,2.81,0,0,0,2-.73,2.68,2.68,0,0,0,.76-2,2.75,2.75,0,0,0-.75-2.05,3.1,3.1,0,0,0-2.26-.73h-2V24.23h2.12a3.06,3.06,0,0,0,1.48-.32,2,2,0,0,0,.87-.89,3.1,3.1,0,0,0,.28-1.37,2.69,2.69,0,0,0-.64-1.89,2.45,2.45,0,0,0-1.87-.69,2.78,2.78,0,0,0-1.31.29,2.05,2.05,0,0,0-.88.82,2.34,2.34,0,0,0-.32,1.22h-3.65l0-.07a4.53,4.53,0,0,1,.74-2.67,5.16,5.16,0,0,1,2.19-1.83,7.4,7.4,0,0,1,3.23-.67,7.13,7.13,0,0,1,4.58,1.39,4.77,4.77,0,0,1,1.73,3.93,4,4,0,0,1-.73,2.37,5.11,5.11,0,0,1-2.17,1.73,4.79,4.79,0,0,1,2.38,1.71,4.5,4.5,0,0,1,.82,2.67,5.12,5.12,0,0,1-.85,2.95,5.43,5.43,0,0,1-2.35,1.91A8.1,8.1,0,0,1,386,35.5Z"/><path d="M400.24,35.5a7.66,7.66,0,0,1-3.14-.64A5.49,5.49,0,0,1,394.83,33a4.57,4.57,0,0,1-.8-2.84l0-.06,3.61-.18a2.64,2.64,0,0,0,.71,1.95,2.51,2.51,0,0,0,1.86.7,2.18,2.18,0,0,0,1.95-.94,4.31,4.31,0,0,0,.63-2.44,4.5,4.5,0,0,0-.67-2.6,2.26,2.26,0,0,0-2-1,2.83,2.83,0,0,0-1.65.4,2.18,2.18,0,0,0-.82,1.08l-3.33-.22,1.09-10.47h10.81v4.29h-2.32l-.34-1.27h-5L398,23.79a4.31,4.31,0,0,1,.8-.46,5.52,5.52,0,0,1,1-.32,5,5,0,0,1,1.12-.12,5.73,5.73,0,0,1,3.07.72,4.78,4.78,0,0,1,1.94,2.17,8,8,0,0,1,.66,3.42,7.07,7.07,0,0,1-.72,3.23,5.42,5.42,0,0,1-2.15,2.25A6.84,6.84,0,0,1,400.24,35.5Z"/><path d="M414.89,35.5a5.93,5.93,0,0,1-4.66-1.93,8.26,8.26,0,0,1-1.72-5.66V23.76a8.3,8.3,0,0,1,1.71-5.65,6.5,6.5,0,0,1,9.28,0,8.25,8.25,0,0,1,1.72,5.65v4.15a8.31,8.31,0,0,1-1.71,5.66A5.88,5.88,0,0,1,414.89,35.5Zm0-2.9a2.13,2.13,0,0,0,1.92-1,6.33,6.33,0,0,0,.66-3.3V23.38a6.26,6.26,0,0,0-.67-3.28,2.18,2.18,0,0,0-1.94-1,2.16,2.16,0,0,0-1.94,1,6.38,6.38,0,0,0-.65,3.28v4.89a6.33,6.33,0,0,0,.66,3.3A2.18,2.18,0,0,0,414.89,32.6Z"/><path d="M428.71,35.22V33l2-.39V30.73h-7.66l-.18-1.84,7.8-12.46h3.8v11.8h2.13v2.5h-2.13v1.85l2,.39v2.25Zm-2.33-7h4.34V21.45l-.08,0-.31.54Z"/><path d="M445.19,35.5a6.7,6.7,0,0,1-3.49-.91A6.16,6.16,0,0,1,439.33,32a9.08,9.08,0,0,1-.85-4.09v-3.3a9.88,9.88,0,0,1,1-4.54,6.94,6.94,0,0,1,2.66-2.88,7.66,7.66,0,0,1,3.91-1,9.22,9.22,0,0,1,2,.2,10.51,10.51,0,0,1,1.8.59l-.66,2.75a12.84,12.84,0,0,0-1.45-.41,6.49,6.49,0,0,0-1.54-.17,3.38,3.38,0,0,0-2.82,1.22,5.87,5.87,0,0,0-1,3.62l0,.06A4.34,4.34,0,0,1,444,23a5.92,5.92,0,0,1,2.15-.37,5.11,5.11,0,0,1,2.9.81,5.2,5.2,0,0,1,1.86,2.24,7.93,7.93,0,0,1,.64,3.28,7,7,0,0,1-.8,3.38,6,6,0,0,1-2.24,2.32A6.37,6.37,0,0,1,445.19,35.5Zm-.08-2.9a2.14,2.14,0,0,0,1.41-.49,3.09,3.09,0,0,0,.91-1.33,5.15,5.15,0,0,0,.32-1.88,3.88,3.88,0,0,0-.74-2.47,2.48,2.48,0,0,0-2.09-1,3.9,3.9,0,0,0-1.1.15,3.27,3.27,0,0,0-.92.44,2.63,2.63,0,0,0-.67.66V28a6.19,6.19,0,0,0,.8,3.43A2.42,2.42,0,0,0,445.11,32.6Z"/><path d="M456.32,35.22l.18-1.91a29.24,29.24,0,0,1,1-5.22,23.18,23.18,0,0,1,4.81-8.75h-6.62l-.14,1.86H452.7V16.43H466v2.91a28.4,28.4,0,0,0-2.51,3.37,19.06,19.06,0,0,0-1.61,3.23,21.69,21.69,0,0,0-1,3.41c-.24,1.2-.44,2.52-.61,4l-.18,1.91Z"/><path class="cls-2" d="M101.08,15.8A16.36,16.36,0,0,0,75.34,35.53L73,44l8.67-2.28a16.26,16.26,0,0,0,7.82,2h0A16.5,16.5,0,0,0,106,27.36,16.38,16.38,0,0,0,101.08,15.8ZM89.52,41a13.57,13.57,0,0,1-6.93-1.9l-.49-.29L77,40.12l1.37-5L78,34.59A13.69,13.69,0,1,1,89.52,41ZM97,30.78c-.41-.21-2.42-1.2-2.79-1.33s-.65-.2-.92.21S92.2,31,92,31.26s-.48.31-.88.11c-2.4-1.2-4-2.15-5.56-4.86-.42-.73.42-.67,1.2-2.24a.77.77,0,0,0,0-.71c-.1-.21-.92-2.22-1.26-3s-.67-.68-.92-.7h-.78a1.49,1.49,0,0,0-1.09.51,4.57,4.57,0,0,0-1.43,3.41A8,8,0,0,0,82.86,28c.21.27,2.88,4.39,7,6.17,2.59,1.12,3.61,1.21,4.9,1a4.15,4.15,0,0,0,2.76-1.94,3.34,3.34,0,0,0,.23-1.95C97.65,31.08,97.37,31,97,30.78Z"/></g></g></svg>